<svg width="33" height="32" viewBox="0 0 33 32" fill="none" xmlns="http://www.w3.org/2000/svg">
<rect x="0.5" width="32" height="32" rx="4" fill="#0742A4"/>
<g clip-path="url(#clip0_1_6)">
<path d="M9.5 22C9.5 22.5304 9.71071 23.0391 10.0858 23.4142C10.4609 23.7893 10.9696 24 11.5 24C12.0304 24 12.5391 23.7893 12.9142 23.4142C13.2893 23.0391 13.5 22.5304 13.5 22C13.5 21.4696 13.2893 20.9609 12.9142 20.5858C12.5391 20.2107 12.0304 20 11.5 20C10.9696 20 10.4609 20.2107 10.0858 20.5858C9.71071 20.9609 9.5 21.4696 9.5 22Z" stroke="#F0F0F0" stroke-width="1.5" stroke-linecap="round" stroke-linejoin="round"/>
<path d="M9.5 10C9.5 10.5304 9.71071 11.0391 10.0858 11.4142C10.4609 11.7893 10.9696 12 11.5 12C12.0304 12 12.5391 11.7893 12.9142 11.4142C13.2893 11.0391 13.5 10.5304 13.5 10C13.5 9.46957 13.2893 8.96086 12.9142 8.58579C12.5391 8.21071 12.0304 8 11.5 8C10.9696 8 10.4609 8.21071 10.0858 8.58579C9.71071 8.96086 9.5 9.46957 9.5 10Z" stroke="#F0F0F0" stroke-width="1.5" stroke-linecap="round" stroke-linejoin="round"/>
<path d="M19.5 16C19.5 16.5304 19.7107 17.0391 20.0858 17.4142C20.4609 17.7893 20.9696 18 21.5 18C22.0304 18 22.5391 17.7893 22.9142 17.4142C23.2893 17.0391 23.5 16.5304 23.5 16C23.5 15.4696 23.2893 14.9609 22.9142 14.5858C22.5391 14.2107 22.0304 14 21.5 14C20.9696 14 20.4609 14.2107 20.0858 14.5858C19.7107 14.9609 19.5 15.4696 19.5 16Z" stroke="#F0F0F0" stroke-width="1.5" stroke-linecap="round" stroke-linejoin="round"/>
<path d="M11.5 12V20" stroke="#F0F0F0" stroke-width="1.5" stroke-linecap="round" stroke-linejoin="round"/>
<path d="M11.5 12C11.5 13.0609 11.9214 14.0783 12.6716 14.8284C13.4217 15.5786 14.4391 16 15.5 16H19.5" stroke="#F0F0F0" stroke-width="1.5" stroke-linecap="round" stroke-linejoin="round"/>
</g>
<defs>
<clipPath id="clip0_1_6">
<rect width="24" height="24" fill="white" transform="translate(4.5 4)"/>
</clipPath>
</defs>
</svg>
